# xmcd
#
# Track frame offsets: 
#        150
#        14587
#        17781
#        30938
#        45054
#        57899
#
# Disc length: 900 seconds
#
# Revision: 0
# Processed by: cddbd v1.5.2PL0 Copyright (c) Steve Scherf et al.
# Submitted via: ExactAudioCopy v0.95b4
#
DISCID=38038206
DTITLE=Various Artist - Party Songs
DYEAR=2009
DGENRE=Pop
TTITLE0=Im a Gummy bear
TTITLE1=THeme From Spongebob Square Pants
TTITLE2=Der Pinguin-Rap
TTITLE3=Theme From Bob The Builder
TTITLE4=Axel F
TTITLE5=Dance Little Bird
EXTD=
EXTT0=
EXTT1=
EXTT2=
EXTT3=
EXTT4=
EXTT5=
PLAYORDER=
